<svg width="62" height="62" viewBox="0 0 62 62" fill="none" xmlns="http://www.w3.org/2000/svg">
<circle cx="31" cy="31" r="31" fill="#212121"/>
<path d="M39.8169 23.4596C39.7241 23.3365 39.6249 23.2182 39.5198 23.1054C39.6256 22.8236 39.7059 22.533 39.7598 22.2369C39.919 21.1539 39.7807 20.0479 39.3598 19.0373C39.3598 19.0373 38.08 18.6374 35.1432 20.6143C33.8964 20.27 32.6086 20.097 31.3151 20.1001C30.018 20.0978 28.7265 20.2708 27.4756 20.6143C24.5389 18.6145 23.259 19.0373 23.259 19.0373C22.8432 20.0372 22.705 21.1308 22.8591 22.2027C22.9133 22.511 22.9975 22.8134 23.1105 23.1054C23.0076 23.2197 22.9048 23.3454 22.8134 23.4596C21.9607 24.5292 21.508 25.8629 21.5335 27.2306C21.5308 27.5549 21.5461 27.8792 21.5792 28.2019C21.9449 33.2641 25.3159 34.4411 28.5269 34.8068C28.0724 35.2294 27.7643 35.7857 27.647 36.3951C27.5408 36.8016 27.4908 37.2207 27.4985 37.6407V39.1376C26.2198 39.2519 24.908 39.0656 24.5012 37.9252C24.0645 36.8337 23.3402 35.8808 22.4054 35.1679C22.3371 35.1309 22.2721 35.0881 22.2112 35.0399C22.1291 34.8241 21.9836 34.6383 21.794 34.5067C21.6043 34.3752 21.3793 34.3041 21.1484 34.3028H21.1427C20.8406 34.3028 20.5509 34.4224 20.3367 34.6355C20.1226 34.8486 20.0015 35.1377 20 35.4398C19.9966 36.3677 20.9256 36.9676 21.3061 37.171C21.7507 37.619 22.1083 38.1456 22.3609 38.724C22.7768 39.893 23.9938 41.6699 27.4642 41.4391L27.4665 41.551L27.4711 41.8573C27.4711 42.1604 27.5915 42.451 27.8058 42.6653C28.0201 42.8796 28.3107 43 28.6138 43H34.0005C34.3036 43 34.5942 42.8796 34.8085 42.6653C35.0228 42.451 35.1432 42.1604 35.1432 41.8573C35.1432 41.8573 35.1524 38.2463 35.1524 37.6407C35.16 37.2207 35.11 36.8016 35.0038 36.3951L35.0015 36.3883L35.0061 36.3951C34.9958 36.3551 34.981 36.3231 34.9695 36.2843C34.8422 35.7181 34.5476 35.2033 34.1239 34.8068L34.1376 34.8308L34.1148 34.8079C37.3258 34.4422 40.6739 33.2424 41.0396 28.203C41.0728 27.8804 41.088 27.5561 41.0853 27.2317C41.1056 25.8668 40.658 24.536 39.8169 23.4608V23.4596Z" fill="#27AE60"/>
</svg>
