<svg width="62" height="62" viewBox="0 0 62 62" fill="none" xmlns="http://www.w3.org/2000/svg">
<circle cx="31" cy="31" r="31" fill="#212121"/>
<path d="M21.6439 24.596C23.2551 24.596 24.5612 23.2899 24.5612 21.6787C24.5612 20.0675 23.2551 18.7614 21.6439 18.7614C20.0327 18.7614 18.7266 20.0675 18.7266 21.6787C18.7266 23.2899 20.0327 24.596 21.6439 24.596Z" fill="#27AE60"/>
<path d="M27.316 26.8067V42.992H32.3414V34.988C32.3414 32.876 32.7387 30.8307 35.3574 30.8307C37.94 30.8307 37.972 33.2453 37.972 35.1213V42.9933H43V34.1173C43 29.7573 42.0614 26.4067 36.9654 26.4067C34.5187 26.4067 32.8787 27.7493 32.208 29.02H32.14V26.8067H27.316ZM19.1267 26.8067H24.16V42.992H19.1267V26.8067Z" fill="#27AE60"/>
</svg>
