<svg width="125" height="32" viewBox="0 0 125 32" fill="none" xmlns="http://www.w3.org/2000/svg">
<path d="M11.232 26.528L0 15.584L11.232 4.64H17.664L6.384 15.584L17.664 26.528H11.232Z" fill="white"/>
<path d="M29.4727 27.008V5.516H22.1287V1.808H41.4608V5.516H34.0807V27.008H29.4727Z" fill="white"/>
<path d="M47.8637 27.44C46.3277 27.44 45.0677 27.2 44.0837 26.72C43.0997 26.216 42.3677 25.556 41.8877 24.74C41.4077 23.924 41.1677 23.024 41.1677 22.04C41.1677 20.384 41.8157 19.04 43.1117 18.008C44.4077 16.976 46.3517 16.46 48.9437 16.46H53.4797V16.028C53.4797 14.804 53.1317 13.904 52.4357 13.328C51.7397 12.752 50.8757 12.464 49.8437 12.464C48.9077 12.464 48.0917 12.692 47.3957 13.148C46.6997 13.58 46.2677 14.228 46.0997 15.092H41.5997C41.7197 13.796 42.1517 12.668 42.8957 11.708C43.6637 10.748 44.6477 10.016 45.8477 9.512C47.0477 8.984 48.3917 8.72 49.8797 8.72C52.4237 8.72 54.4277 9.356 55.8917 10.628C57.3557 11.9 58.0877 13.7 58.0877 16.028V27.008H54.1637L53.7317 24.128C53.2037 25.088 52.4597 25.88 51.4997 26.504C50.5637 27.128 49.3517 27.44 47.8637 27.44ZM48.9077 23.84C50.2277 23.84 51.2477 23.408 51.9677 22.544C52.7117 21.68 53.1797 20.612 53.3717 19.34H49.4477C48.2237 19.34 47.3477 19.568 46.8197 20.024C46.2917 20.456 46.0277 20.996 46.0277 21.644C46.0277 22.34 46.2917 22.88 46.8197 23.264C47.3477 23.648 48.0437 23.84 48.9077 23.84Z" fill="white"/>
<path d="M62.485 27.008V9.152H66.589L67.021 12.5C67.669 11.348 68.545 10.436 69.649 9.764C70.777 9.068 72.097 8.72 73.609 8.72V13.58H72.313C71.305 13.58 70.405 13.736 69.613 14.048C68.821 14.36 68.197 14.9 67.741 15.668C67.309 16.436 67.093 17.504 67.093 18.872V27.008H62.485Z" fill="white"/>
<path d="M79.2425 6.38C78.4025 6.38 77.7065 6.128 77.1545 5.624C76.6265 5.12 76.3625 4.484 76.3625 3.716C76.3625 2.948 76.6265 2.324 77.1545 1.844C77.7065 1.34 78.4025 1.088 79.2425 1.088C80.0825 1.088 80.7665 1.34 81.2945 1.844C81.8465 2.324 82.1225 2.948 82.1225 3.716C82.1225 4.484 81.8465 5.12 81.2945 5.624C80.7665 6.128 80.0825 6.38 79.2425 6.38ZM76.9385 27.008V9.152H81.5465V27.008H76.9385Z" fill="white"/>
<path d="M85.2641 31.952L97.2641 0H102.256L90.2081 31.952H85.2641Z" fill="white"/>
<path d="M107.02 26.528L118.3 15.584L107.02 4.64H113.452L124.684 15.584L113.452 26.528H107.02Z" fill="white"/>
</svg>
