<svg width="866" height="113" viewBox="0 0 866 113" fill="none" xmlns="http://www.w3.org/2000/svg">
<path d="M15.2402 0H18.4862V3.207H21.4562V0H24.7022V9.708H21.4562V6.459H18.4862V9.708H15.2432V0H15.2402Z" fill="white"/>
<path d="M28.9681 3.219H26.1121V0H35.0731V3.219H32.2141V9.708H28.9681V3.219Z" fill="white"/>
<path d="M36.4951 0H39.8791L41.9611 3.411L44.0401 0H47.4241V9.708H44.1931V4.896L41.9611 8.349H41.9041L39.6691 4.899V9.708H36.4951V0Z" fill="white"/>
<path d="M49.0381 0H52.2871V6.501H56.8471V9.711H49.0381V0Z" fill="white"/>
<path fill-rule="evenodd" clip-rule="evenodd" d="M15.138 66.216L9 14.151H63L56.859 66.21L35.97 72L15.138 66.216ZM27.549 37.716L26.967 31.176H51.402L51.972 24.792H19.992L21.714 44.103H43.845L43.104 52.383L35.982 54.309H35.976L28.866 52.389L28.41 47.298H21.996L22.89 57.324L35.97 60.954L49.071 57.324L50.667 39.432L50.823 37.719H27.549V37.716Z" fill="white"/>
<path d="M4.86638 106V89.2H7.93838V96.184H15.4744V89.2H18.5464V106H15.4744V98.68H7.93838V106H4.86638ZM25.7237 106V91.672H20.8277V89.2H33.7157V91.672H28.7957V106H25.7237ZM35.9914 106V89.2H39.6394L44.9914 99.856L50.2714 89.2H53.9194V106H50.8474V94.408L46.1674 103.6H43.7434L39.0634 94.408V106H35.9914ZM57.1789 106V89.2H60.2509V103.6H67.6909V106H57.1789Z" fill="#7879F1"/>
<path d="M262.506 0H270.24V3.234H265.74V6.468H270.24V9.702H262.506V0Z" fill="white"/>
<path d="M271.785 0H279.522V2.814H275.022V3.375H279.522V9.843H271.785V6.891H276.285V6.327H271.785V0Z" fill="white"/>
<path d="M281.07 0H288.801V2.814H284.301V3.375H288.801V9.843H281.07V6.891H285.57V6.327H281.07V0Z" fill="white"/>
<path fill-rule="evenodd" clip-rule="evenodd" d="M275.973 72L255.141 66.216L249 14.151H303L296.862 66.21L275.973 72ZM261.141 37.719L261.714 44.103H283.845L283.104 52.383L275.982 54.309H275.976L268.866 52.389L268.41 47.298H261.999L262.893 57.324L275.973 60.954L289.074 57.324L290.67 39.432L290.826 37.719L291.978 24.792H259.992L260.574 31.179H284.982L284.4 37.719H261.141Z" fill="white"/>
<path d="M262.072 106.288C260.376 106.288 258.92 105.928 257.704 105.208C256.488 104.472 255.552 103.456 254.896 102.16C254.24 100.848 253.912 99.336 253.912 97.624C253.912 95.912 254.24 94.4 254.896 93.088C255.552 91.776 256.488 90.752 257.704 90.016C258.92 89.28 260.376 88.912 262.072 88.912C264.088 88.912 265.736 89.416 267.016 90.424C268.312 91.416 269.12 92.816 269.44 94.624H266.056C265.848 93.712 265.4 93 264.712 92.488C264.04 91.96 263.144 91.696 262.024 91.696C260.472 91.696 259.256 92.224 258.376 93.28C257.496 94.336 257.056 95.784 257.056 97.624C257.056 99.464 257.496 100.912 258.376 101.968C259.256 103.008 260.472 103.528 262.024 103.528C263.144 103.528 264.04 103.288 264.712 102.808C265.4 102.312 265.848 101.632 266.056 100.768H269.44C269.12 102.496 268.312 103.848 267.016 104.824C265.736 105.8 264.088 106.288 262.072 106.288ZM277.895 106.288C276.663 106.288 275.575 106.08 274.631 105.664C273.687 105.232 272.943 104.624 272.399 103.84C271.855 103.04 271.575 102.072 271.559 100.936H274.799C274.831 101.72 275.111 102.384 275.639 102.928C276.183 103.456 276.927 103.72 277.871 103.72C278.687 103.72 279.335 103.528 279.815 103.144C280.295 102.744 280.535 102.216 280.535 101.56C280.535 100.872 280.319 100.336 279.887 99.952C279.471 99.568 278.911 99.256 278.207 99.016C277.503 98.776 276.751 98.52 275.951 98.248C274.655 97.8 273.663 97.224 272.975 96.52C272.303 95.816 271.967 94.88 271.967 93.712C271.951 92.72 272.183 91.872 272.663 91.168C273.159 90.448 273.831 89.896 274.679 89.512C275.527 89.112 276.503 88.912 277.607 88.912C278.727 88.912 279.711 89.112 280.559 89.512C281.423 89.912 282.095 90.472 282.575 91.192C283.071 91.912 283.335 92.768 283.367 93.76H280.079C280.063 93.168 279.831 92.648 279.383 92.2C278.951 91.736 278.343 91.504 277.559 91.504C276.887 91.488 276.319 91.656 275.855 92.008C275.407 92.344 275.183 92.84 275.183 93.496C275.183 94.056 275.359 94.504 275.711 94.84C276.063 95.16 276.543 95.432 277.151 95.656C277.759 95.88 278.455 96.12 279.239 96.376C280.071 96.664 280.831 97 281.519 97.384C282.207 97.768 282.759 98.28 283.175 98.92C283.591 99.544 283.799 100.352 283.799 101.344C283.799 102.224 283.575 103.04 283.127 103.792C282.679 104.544 282.015 105.152 281.135 105.616C280.255 106.064 279.175 106.288 277.895 106.288ZM292.216 106.288C290.984 106.288 289.896 106.08 288.952 105.664C288.008 105.232 287.264 104.624 286.72 103.84C286.176 103.04 285.896 102.072 285.88 100.936H289.12C289.152 101.72 289.432 102.384 289.96 102.928C290.504 103.456 291.248 103.72 292.192 103.72C293.008 103.72 293.656 103.528 294.136 103.144C294.616 102.744 294.856 102.216 294.856 101.56C294.856 100.872 294.64 100.336 294.208 99.952C293.792 99.568 293.232 99.256 292.528 99.016C291.824 98.776 291.072 98.52 290.272 98.248C288.976 97.8 287.984 97.224 287.296 96.52C286.624 95.816 286.288 94.88 286.288 93.712C286.272 92.72 286.504 91.872 286.984 91.168C287.48 90.448 288.152 89.896 289 89.512C289.848 89.112 290.824 88.912 291.928 88.912C293.048 88.912 294.032 89.112 294.88 89.512C295.744 89.912 296.416 90.472 296.896 91.192C297.392 91.912 297.656 92.768 297.688 93.76H294.4C294.384 93.168 294.152 92.648 293.704 92.2C293.272 91.736 292.664 91.504 291.88 91.504C291.208 91.488 290.64 91.656 290.176 92.008C289.728 92.344 289.504 92.84 289.504 93.496C289.504 94.056 289.68 94.504 290.032 94.84C290.384 95.16 290.864 95.432 291.472 95.656C292.08 95.88 292.776 96.12 293.56 96.376C294.392 96.664 295.152 97 295.84 97.384C296.528 97.768 297.08 98.28 297.496 98.92C297.912 99.544 298.12 100.352 298.12 101.344C298.12 102.224 297.896 103.04 297.448 103.792C297 104.544 296.336 105.152 295.456 105.616C294.576 106.064 293.496 106.288 292.216 106.288Z" fill="#7879F1"/>
<g clip-path="url(#clip0_182_119)">
<path fill-rule="evenodd" clip-rule="evenodd" d="M514.5 0H586.5V72H514.5V0ZM569.541 60.36C566.202 60.36 564.315 58.62 562.866 56.25L557.367 59.445C559.353 63.369 563.412 66.363 569.697 66.363C576.123 66.363 580.908 63.027 580.908 56.934C580.908 51.285 577.662 48.774 571.914 46.305L570.222 45.582C567.318 44.322 566.061 43.503 566.061 41.472C566.061 39.831 567.321 38.574 569.301 38.574C571.242 38.574 572.493 39.393 573.654 41.472L578.922 38.091C576.693 34.17 573.603 32.673 569.301 32.673C563.259 32.673 559.392 36.537 559.392 41.613C559.392 47.118 562.632 49.725 567.516 51.804L569.208 52.53C572.295 53.88 574.134 54.702 574.134 57.021C574.134 58.959 572.343 60.36 569.541 60.36ZM543.321 60.315C540.996 60.315 540.027 58.725 538.965 56.835L533.457 60.171C535.053 63.549 538.191 66.351 543.606 66.351C549.603 66.351 553.71 63.162 553.71 56.157V33.057H546.945V56.067C546.945 59.448 545.541 60.315 543.318 60.315H543.321Z" fill="white"/>
</g>
<path d="M486.387 106.288C484.755 106.288 483.443 105.832 482.451 104.92C481.475 103.992 480.987 102.68 480.987 100.984H484.059C484.075 101.768 484.259 102.392 484.611 102.856C484.963 103.32 485.531 103.552 486.315 103.552C487.051 103.552 487.587 103.336 487.923 102.904C488.259 102.456 488.427 101.872 488.427 101.152V89.2H491.499V101.152C491.499 102.8 491.035 104.072 490.107 104.968C489.195 105.848 487.955 106.288 486.387 106.288ZM492.962 106L499.106 89.2H502.562L508.706 106H505.442L504.098 102.112H497.546L496.178 106H492.962ZM498.386 99.712H503.258L500.81 92.728L498.386 99.712ZM513.609 106L507.465 89.2H510.753L515.505 102.856L520.281 89.2H523.521L517.377 106H513.609ZM522.306 106L528.45 89.2H531.906L538.05 106H534.786L533.442 102.112H526.89L525.522 106H522.306ZM527.73 99.712H532.602L530.154 92.728L527.73 99.712ZM545.95 106.288C544.718 106.288 543.63 106.08 542.686 105.664C541.742 105.232 540.998 104.624 540.454 103.84C539.91 103.04 539.63 102.072 539.614 100.936H542.854C542.886 101.72 543.166 102.384 543.694 102.928C544.238 103.456 544.982 103.72 545.926 103.72C546.742 103.72 547.39 103.528 547.87 103.144C548.35 102.744 548.59 102.216 548.59 101.56C548.59 100.872 548.374 100.336 547.942 99.952C547.526 99.568 546.966 99.256 546.262 99.016C545.558 98.776 544.806 98.52 544.006 98.248C542.71 97.8 541.718 97.224 541.03 96.52C540.358 95.816 540.022 94.88 540.022 93.712C540.006 92.72 540.238 91.872 540.718 91.168C541.214 90.448 541.886 89.896 542.734 89.512C543.582 89.112 544.558 88.912 545.662 88.912C546.782 88.912 547.766 89.112 548.614 89.512C549.478 89.912 550.15 90.472 550.63 91.192C551.126 91.912 551.39 92.768 551.422 93.76H548.134C548.118 93.168 547.886 92.648 547.438 92.2C547.006 91.736 546.398 91.504 545.614 91.504C544.942 91.488 544.374 91.656 543.91 92.008C543.462 92.344 543.238 92.84 543.238 93.496C543.238 94.056 543.414 94.504 543.766 94.84C544.118 95.16 544.598 95.432 545.206 95.656C545.814 95.88 546.51 96.12 547.294 96.376C548.126 96.664 548.886 97 549.574 97.384C550.262 97.768 550.814 98.28 551.23 98.92C551.646 99.544 551.854 100.352 551.854 101.344C551.854 102.224 551.63 103.04 551.182 103.792C550.734 104.544 550.07 105.152 549.19 105.616C548.31 106.064 547.23 106.288 545.95 106.288ZM562.142 106.288C560.446 106.288 558.99 105.928 557.774 105.208C556.558 104.472 555.622 103.456 554.966 102.16C554.31 100.848 553.982 99.336 553.982 97.624C553.982 95.912 554.31 94.4 554.966 93.088C555.622 91.776 556.558 90.752 557.774 90.016C558.99 89.28 560.446 88.912 562.142 88.912C564.158 88.912 565.806 89.416 567.086 90.424C568.382 91.416 569.19 92.816 569.51 94.624H566.126C565.918 93.712 565.47 93 564.782 92.488C564.11 91.96 563.214 91.696 562.094 91.696C560.542 91.696 559.326 92.224 558.446 93.28C557.566 94.336 557.126 95.784 557.126 97.624C557.126 99.464 557.566 100.912 558.446 101.968C559.326 103.008 560.542 103.528 562.094 103.528C563.214 103.528 564.11 103.288 564.782 102.808C565.47 102.312 565.918 101.632 566.126 100.768H569.51C569.19 102.496 568.382 103.848 567.086 104.824C565.806 105.8 564.158 106.288 562.142 106.288ZM572.23 106V89.2H578.398C579.742 89.2 580.846 89.432 581.71 89.896C582.59 90.344 583.246 90.96 583.678 91.744C584.11 92.512 584.326 93.368 584.326 94.312C584.326 95.336 584.054 96.272 583.51 97.12C582.982 97.968 582.15 98.584 581.014 98.968L584.494 106H580.966L577.846 99.376H575.302V106H572.23ZM575.302 97.12H578.206C579.23 97.12 579.982 96.872 580.462 96.376C580.942 95.88 581.182 95.224 581.182 94.408C581.182 93.608 580.942 92.968 580.462 92.488C579.998 92.008 579.238 91.768 578.182 91.768H575.302V97.12ZM587.183 106V89.2H590.255V106H587.183ZM593.511 106V89.2H599.727C601.071 89.2 602.183 89.424 603.063 89.872C603.943 90.32 604.599 90.936 605.031 91.72C605.463 92.504 605.679 93.384 605.679 94.36C605.679 95.288 605.471 96.144 605.055 96.928C604.639 97.696 603.991 98.32 603.111 98.8C602.231 99.264 601.103 99.496 599.727 99.496H596.583V106H593.511ZM596.583 97H599.535C600.607 97 601.375 96.768 601.839 96.304C602.319 95.824 602.559 95.176 602.559 94.36C602.559 93.528 602.319 92.88 601.839 92.416C601.375 91.936 600.607 91.696 599.535 91.696H596.583V97ZM612.001 106V91.672H607.105V89.2H619.993V91.672H615.073V106H612.001Z" fill="#7879F1"/>
<g clip-path="url(#clip1_182_119)">
<path d="M863.5 35.067C863.5 30.297 857.527 25.776 848.368 22.974C850.483 13.641 849.544 6.213 845.404 3.834C844.401 3.27216 843.265 2.98936 842.116 3.015V6.285C842.791 6.285 843.334 6.42 843.79 6.669C845.785 7.815 846.652 12.171 845.977 17.778C845.815 19.158 845.551 20.61 845.227 22.092C842.16 21.3529 839.047 20.8187 835.909 20.493C834.04 17.9139 832 15.4624 829.804 13.155C834.589 8.709 839.08 6.273 842.134 6.273V3C838.096 3 832.813 5.877 827.47 10.866C822.13 5.91 816.844 3.06 812.809 3.06V6.33C815.848 6.33 820.354 8.754 825.139 13.17C823.084 15.33 821.029 17.778 819.076 20.493C815.932 20.8151 812.813 21.3544 809.743 22.107C809.404 20.64 809.155 19.218 808.978 17.853C808.288 12.243 809.14 7.887 811.123 6.729C811.561 6.465 812.134 6.345 812.809 6.345V3.075C811.579 3.075 810.46 3.339 809.494 3.894C805.369 6.273 804.445 13.683 806.572 22.989C797.443 25.809 791.5 30.312 791.5 35.067C791.5 39.837 797.473 44.358 806.632 47.157C804.517 56.493 805.456 63.921 809.596 66.297C810.55 66.855 811.666 67.119 812.896 67.119C816.934 67.119 822.217 64.242 827.56 59.253C832.9 64.212 838.183 67.059 842.221 67.059C843.379 67.0835 844.523 66.7998 845.536 66.237C849.661 63.861 850.585 56.451 848.458 47.145C857.557 44.343 863.5 39.822 863.5 35.067ZM844.39 25.278C843.82 27.2396 843.159 29.1736 842.41 31.074C841.183 28.6883 839.837 26.3663 838.375 24.117C840.46 24.426 842.47 24.807 844.393 25.278H844.39ZM837.67 40.908C836.527 42.888 835.351 44.769 834.133 46.515C829.73 46.9031 825.301 46.9081 820.897 46.53C818.371 42.9215 816.162 39.1013 814.294 35.112C816.159 31.1133 818.359 27.2796 820.87 23.652C825.272 23.2631 829.7 23.2571 834.103 23.634C835.321 25.38 836.512 27.246 837.655 29.214C838.771 31.134 839.785 33.084 840.709 35.052C839.775 37.0439 838.761 38.9974 837.67 40.908ZM842.41 39C843.202 40.965 843.88 42.933 844.435 44.841C842.515 45.312 840.487 45.708 838.39 46.014C839.846 43.7443 841.187 41.4034 842.41 39ZM827.53 54.66C826.165 53.25 824.8 51.681 823.45 49.962C824.77 50.022 826.12 50.067 827.485 50.067C828.865 50.067 830.23 50.037 831.565 49.962C830.245 51.681 828.88 53.25 827.53 54.66ZM816.61 46.014C814.587 45.7209 812.579 45.3345 810.592 44.856C811.135 42.963 811.81 41.01 812.572 39.06C813.175 40.23 813.808 41.406 814.498 42.582C815.188 43.755 815.89 44.901 816.61 46.014ZM827.455 15.474C828.82 16.884 830.185 18.453 831.535 20.172C830.215 20.112 828.865 20.067 827.5 20.067C826.12 20.067 824.755 20.097 823.42 20.172C824.74 18.453 826.105 16.884 827.455 15.474ZM816.595 24.12C815.14 26.3848 813.798 28.7207 812.575 31.119C811.805 29.2064 811.129 27.257 810.55 25.278C812.47 24.822 814.498 24.426 816.595 24.12ZM803.314 42.492C798.118 40.278 794.758 37.371 794.758 35.067C794.758 32.763 798.118 29.841 803.314 27.642C804.574 27.099 805.954 26.613 807.379 26.16C808.216 29.034 809.317 32.028 810.679 35.097C809.393 37.9836 808.306 40.9544 807.424 43.989C806.03 43.5575 804.659 43.0579 803.314 42.492ZM811.21 63.462C809.215 62.322 808.348 57.96 809.023 52.356C809.185 50.976 809.449 49.521 809.773 48.039C812.647 48.744 815.788 49.287 819.091 49.641C820.961 52.2201 823 54.6715 825.196 56.979C820.411 61.425 815.92 63.861 812.866 63.861C812.29 63.8673 811.721 63.7313 811.21 63.465V63.462ZM846.022 52.281C846.712 57.888 845.86 62.247 843.877 63.405C843.439 63.669 842.866 63.786 842.191 63.786C839.152 63.786 834.646 61.365 829.861 56.946C831.916 54.792 833.971 52.341 835.924 49.626C839.069 49.3039 842.187 48.7646 845.257 48.012C845.596 49.494 845.857 50.916 846.022 52.281ZM851.671 42.492C850.411 43.035 849.031 43.521 847.606 43.974C846.709 40.9239 845.606 37.9381 844.306 35.037C845.656 31.986 846.739 29.007 847.561 26.145C849.016 26.598 850.393 27.099 851.686 27.642C856.882 29.856 860.242 32.763 860.242 35.067C860.227 37.371 856.867 40.293 851.671 42.492Z" fill="white"/>
<path d="M827.485 41.775C829.264 41.775 830.97 41.0683 832.228 39.8103C833.486 38.5523 834.193 36.8461 834.193 35.067C834.193 33.2879 833.486 31.5817 832.228 30.3237C830.97 29.0657 829.264 28.359 827.485 28.359C825.706 28.359 824 29.0657 822.742 30.3237C821.484 31.5817 820.777 33.2879 820.777 35.067C820.777 36.8461 821.484 38.5523 822.742 39.8103C824 41.0683 825.706 41.775 827.485 41.775Z" fill="white"/>
</g>
<path d="M790.952 106V89.2H797.12C798.464 89.2 799.568 89.432 800.432 89.896C801.312 90.344 801.968 90.96 802.4 91.744C802.832 92.512 803.048 93.368 803.048 94.312C803.048 95.336 802.776 96.272 802.232 97.12C801.704 97.968 800.872 98.584 799.736 98.968L803.216 106H799.688L796.568 99.376H794.024V106H790.952ZM794.024 97.12H796.928C797.952 97.12 798.704 96.872 799.184 96.376C799.664 95.88 799.904 95.224 799.904 94.408C799.904 93.608 799.664 92.968 799.184 92.488C798.72 92.008 797.96 91.768 796.904 91.768H794.024V97.12ZM805.905 106V89.2H816.873V91.672H808.977V96.28H816.153V98.68H808.977V103.528H816.873V106H805.905ZM818.7 106L824.844 89.2H828.3L834.444 106H831.18L829.836 102.112H823.284L821.916 106H818.7ZM824.124 99.712H828.996L826.548 92.728L824.124 99.712ZM843.256 106.288C841.56 106.288 840.104 105.928 838.888 105.208C837.672 104.472 836.736 103.456 836.08 102.16C835.424 100.848 835.096 99.336 835.096 97.624C835.096 95.912 835.424 94.4 836.08 93.088C836.736 91.776 837.672 90.752 838.888 90.016C840.104 89.28 841.56 88.912 843.256 88.912C845.272 88.912 846.92 89.416 848.2 90.424C849.496 91.416 850.304 92.816 850.624 94.624H847.24C847.032 93.712 846.584 93 845.896 92.488C845.224 91.96 844.328 91.696 843.208 91.696C841.656 91.696 840.44 92.224 839.56 93.28C838.68 94.336 838.24 95.784 838.24 97.624C838.24 99.464 838.68 100.912 839.56 101.968C840.44 103.008 841.656 103.528 843.208 103.528C844.328 103.528 845.224 103.288 845.896 102.808C846.584 102.312 847.032 101.632 847.24 100.768H850.624C850.304 102.496 849.496 103.848 848.2 104.824C846.92 105.8 845.272 106.288 843.256 106.288ZM857.044 106V91.672H852.148V89.2H865.036V91.672H860.116V106H857.044Z" fill="#7879F1"/>
<defs>
<clipPath id="clip0_182_119">
<rect width="72" height="72" fill="white" transform="translate(514.5)"/>
</clipPath>
<clipPath id="clip1_182_119">
<rect width="72" height="72" fill="white" transform="translate(791.5)"/>
</clipPath>
</defs>
</svg>
