<svg width="62" height="62" viewBox="0 0 62 62" fill="none" xmlns="http://www.w3.org/2000/svg">
<circle cx="31" cy="31" r="31" fill="#212121"/>
<path d="M45.8584 21.7828C44.7971 22.253 43.6571 22.5708 42.4586 22.7144C43.6952 21.9744 44.6204 20.8098 45.0615 19.4379C43.8996 20.128 42.628 20.6138 41.302 20.8741C40.4103 19.9219 39.2291 19.2909 37.942 19.0788C36.6548 18.8667 35.3337 19.0855 34.1836 19.7013C33.0336 20.317 32.119 21.2952 31.5819 22.484C31.0448 23.6728 30.9151 25.0056 31.2131 26.2756C28.8589 26.1574 26.5559 25.5455 24.4534 24.4796C22.351 23.4138 20.4962 21.9177 19.0094 20.0886C18.501 20.9656 18.2087 21.9823 18.2087 23.0652C18.2081 24.04 18.4482 24.9999 18.9076 25.8597C19.3669 26.7195 20.0314 27.4526 20.8421 27.994C19.9019 27.964 18.9825 27.71 18.1604 27.253V27.3292C18.1603 28.6965 18.6332 30.0216 19.4989 31.0798C20.3646 32.1381 21.5698 32.8642 22.91 33.135C22.0378 33.371 21.1234 33.4058 20.2359 33.2367C20.614 34.4131 21.3505 35.4418 22.3423 36.1788C23.3341 36.9159 24.5316 37.3243 25.7671 37.3469C23.6698 38.9933 21.0796 39.8864 18.4133 39.8825C17.941 39.8826 17.4691 39.855 17 39.7999C19.7065 41.54 22.857 42.4636 26.0746 42.46C36.9667 42.46 42.9212 33.4387 42.9212 25.6147C42.9212 25.3605 42.9148 25.1038 42.9034 24.8496C44.0616 24.012 45.0614 22.9748 45.8558 21.7866L45.8584 21.7828Z" fill="#27AE60"/>
</svg>
